<svg xmlns="http://www.w3.org/2000/svg" width="512" height="512" viewBox="0 0 512 512">
	<title>Poracle</title>
	<rect width="512" height="512" rx="112" fill="#f5c518"/>
	<!-- Poro (variant A), donkere lijn voor contrast op geel. Crème lijf. -->
	<g transform="translate(76 70) scale(3.0)">
		<g fill="#20190a"><ellipse cx="46" cy="114" rx="12" ry="9"/><ellipse cx="74" cy="114" rx="12" ry="9"/></g>
		<g fill="#f4f1ea"><ellipse cx="46" cy="112" rx="9.5" ry="7"/><ellipse cx="74" cy="112" rx="9.5" ry="7"/></g>
		<g fill="#20190a"><circle cx="51" cy="17" r="9.5"/><circle cx="66" cy="13" r="10.5"/></g>
		<g fill="#f4f1ea"><circle cx="51" cy="18" r="6.8"/><circle cx="66" cy="14.5" r="7.6"/></g>
		<g fill="#20190a"><circle cx="60" cy="66" r="43"/><circle cx="38" cy="44" r="23"/><circle cx="60" cy="34" r="25"/><circle cx="82" cy="44" r="23"/><circle cx="26" cy="66" r="23"/><circle cx="94" cy="66" r="23"/><circle cx="40" cy="92" r="23"/><circle cx="80" cy="92" r="23"/><circle cx="60" cy="98" r="27"/></g>
		<g fill="#f4f1ea"><circle cx="60" cy="66" r="40"/><circle cx="38" cy="44" r="20"/><circle cx="60" cy="34" r="22"/><circle cx="82" cy="44" r="20"/><circle cx="26" cy="66" r="20"/><circle cx="94" cy="66" r="20"/><circle cx="40" cy="92" r="20"/><circle cx="80" cy="92" r="20"/><circle cx="60" cy="98" r="24"/></g>
		<circle cx="34" cy="74" r="6" fill="#f3b0aa"/><circle cx="86" cy="74" r="6" fill="#f3b0aa"/>
		<circle cx="48" cy="62" r="7.6" fill="#20190a"/><circle cx="72" cy="62" r="7.6" fill="#20190a"/>
		<circle cx="50.6" cy="58.8" r="2.5" fill="#fff"/><circle cx="74.6" cy="58.8" r="2.5" fill="#fff"/>
		<path d="M54 80 Q54 97 60 97 Q66 97 66 80 Z" fill="#ef8a9a" stroke="#20190a" stroke-width="2.4"/>
		<line x1="60" y1="84" x2="60" y2="94" stroke="#20190a" stroke-width="1.8" stroke-linecap="round" opacity=".45"/>
		<path d="M49 79 Q60 85 71 79" fill="none" stroke="#20190a" stroke-width="3" stroke-linecap="round"/>
	</g>
</svg>
